<?xml version="1.0" encoding="iso-8859-1"?>
<!-- Generator: Adobe Illustrator 19.0.0, SVG Export Plug-In . SVG Version: 6.00 Build 0)  -->
<svg version="1.1" id="Capa_1" xmlns="http://www.w3.org/2000/svg" xmlns:xlink="http://www.w3.org/1999/xlink" x="0px" y="0px"
	 viewBox="0 0 512 512" style="enable-background:new 0 0 512 512;" xml:space="preserve">
<path style="fill:#FFEDA1;" d="M298.87,74.675c0,23.64-19.24,42.87-42.87,42.87c-23.64,0-42.87-19.23-42.87-42.87
	c0-15.33,15.72-44.48,28.92-66.24c2.93-4.85,8.28-7.86,13.95-7.86c5.67,0,11.01,3.01,13.95,7.86
	C283.14,30.195,298.87,59.345,298.87,74.675z"/>
<path style="fill:#FFCE6C;" d="M298.87,74.675c0,23.64-19.24,42.87-42.87,42.87V0.575c5.67,0,11.01,3.01,13.95,7.86
	C283.14,30.195,298.87,59.345,298.87,74.675z"/>
<path style="fill:#EF8A45;" d="M271,102.865v42.36c0,8.28-6.72,15-15,15c-8.29,0-15-6.72-15-15v-42.36c0-8.29,6.71-15,15-15
	C264.28,87.865,271,94.575,271,102.865z"/>
<path style="fill:#E57529;" d="M271,102.865v42.36c0,8.28-6.72,15-15,15v-72.36C264.28,87.865,271,94.575,271,102.865z"/>
<path style="fill:#EF8A45;" d="M481.87,195.325v132.48c0,8.99-7.32,16.31-16.31,16.31H44.13c-8.99,0-16.3-7.32-16.3-16.31v-132.48
	c0-35.9,29.2-65.1,65.1-65.1h323.83C452.66,130.225,481.87,159.425,481.87,195.325z"/>
<path style="fill:#E57529;" d="M481.87,195.325v132.48c0,8.99-7.32,16.31-16.31,16.31H256v-213.89h160.76
	C452.66,130.225,481.87,159.425,481.87,195.325z"/>
<path style="fill:#FFBC64;" d="M481.87,195.325v19.17l-32.41,18.98c-16.46,9.1-36.76,6.59-50.52-6.23l-3.65-3.4
	c-4.82-4.48-12.32-4.77-17.45-0.66l-5.23,4.19c-16.2,12.96-39.41,12.6-55.21-0.85l-3.02-2.58c-4.96-4.22-12.19-4.26-17.2-0.1
	l-5.44,4.53c-10.21,8.49-23.38,11.58-35.74,9.25c-7.01-1.3-13.77-4.35-19.58-9.14l-6.18-5.11c-4.88-4.03-11.99-4.06-16.91-0.08
	l-7.41,6c-15.81,12.81-38.03,12.98-54.03,0.44l-7.82-6.13c-4.9-3.85-11.73-3.81-16.59,0.09l-12.81,10.27
	c-7.83,6.28-17.48,9.49-27.17,9.49c-7.54,0-15.1-1.95-21.84-5.89l-37.83-21.59v-20.65c0-35.9,29.2-65.1,65.1-65.1h323.83
	C452.66,130.225,481.87,159.425,481.87,195.325z"/>
<path style="fill:#F9A43E;" d="M481.87,195.325v19.17l-32.41,18.98c-16.46,9.1-36.76,6.59-50.52-6.23l-3.65-3.4
	c-4.82-4.48-12.32-4.77-17.45-0.66l-5.23,4.19c-16.2,12.96-39.41,12.6-55.21-0.85l-3.02-2.58c-4.96-4.22-12.19-4.26-17.2-0.1
	l-5.44,4.53c-10.21,8.49-23.38,11.58-35.74,9.25v-107.4h160.76C452.66,130.225,481.87,159.425,481.87,195.325z"/>
<path style="fill:#73EAE6;" d="M280.774,360.262h-51.853c-4.014,0-7.512,2.737-8.477,6.634l-32.38,130.772
	c-1.731,6.992,3.56,13.754,10.763,13.754h112.04c7.204,0,12.495-6.761,10.763-13.754l-32.38-130.772
	C288.286,362.998,284.789,360.262,280.774,360.262z"/>
<path style="fill:#7984EB;" d="M512,331.455c0,32.4-26.37,58.76-58.77,58.76H58.76c-32.4,0-58.76-26.36-58.76-58.76
	c0-9.56,7.78-17.34,17.34-17.34h477.32C504.22,314.115,512,321.885,512,331.455z"/>
<path style="fill:#4B5BE4;" d="M512,331.455c0,32.4-26.37,58.76-58.77,58.76H256v-76.1h238.66
	C504.22,314.115,512,321.885,512,331.455z"/>
<path style="fill:#7984EB;" d="M350.85,496.425c0,8.28-6.71,15-15,15H173.84c-8.28,0-15-6.72-15-15c0-8.29,6.72-15,15-15h162.01
	C344.14,481.425,350.85,488.135,350.85,496.425z"/>
<path style="fill:#4B5BE4;" d="M350.85,496.425c0,8.28-6.71,15-15,15H256v-30h79.85C344.14,481.425,350.85,488.135,350.85,496.425z"
	/>
<g>
</g>
<g>
</g>
<g>
</g>
<g>
</g>
<g>
</g>
<g>
</g>
<g>
</g>
<g>
</g>
<g>
</g>
<g>
</g>
<g>
</g>
<g>
</g>
<g>
</g>
<g>
</g>
<g>
</g>
</svg>
