<?xml version="1.0" encoding="iso-8859-1"?>
<!-- Generator: Adobe Illustrator 19.0.0, SVG Export Plug-In . SVG Version: 6.00 Build 0)  -->
<svg version="1.1" id="Capa_1" xmlns="http://www.w3.org/2000/svg" xmlns:xlink="http://www.w3.org/1999/xlink" x="0px" y="0px"
	 viewBox="0 0 512 512" style="enable-background:new 0 0 512 512;" xml:space="preserve">
<g transform="matrix(1.25 0 0 -1.25 0 45)">
	<g>
		<path style="fill:#CCD6DD;" d="M352.711-301.351c0-9.421-7.646-17.067-17.067-17.067c-9.421,0-17.067,7.646-17.067,17.067v273.067
			c0,9.432,7.646,17.067,17.067,17.067c9.421,0,17.067-7.635,17.067-17.067V-301.351z"/>
		<path style="fill:#CCD6DD;" d="M396.877-329.796c0.421,1.866,0.705,3.755,0.705,5.689c0,21.993-28.012,39.822-62.566,39.822
			c-34.566,0-62.59-17.829-62.59-39.822c0-1.934,0.296-3.823,0.717-5.689H396.877z"/>
	</g>
	<path style="fill:#FCAB40;" d="M408.966-68.106c3.8-12.8-10.195-22.756-22.756-22.756h-102.4
		c-12.572,0-26.067,11.378-22.756,22.756l22.756,79.645c2.844,12.322,10.183,22.756,22.756,22.756h56.889
		c12.561,0,19.911-12.8,22.756-22.756L408.966-68.106z"/>
	<path style="fill:#5D9040;" d="M330.026-296.807c0-13.824-11.571-25.019-25.839-25.019H71.636
		c-14.267,0-25.839,11.195-25.839,25.019v112.64c0,13.824,11.571,25.043,25.839,25.043h122.141h110.41
		c14.267,0,25.839-11.219,25.839-25.043V-296.807z"/>
	<path style="fill:#3F7123;" d="M312.889-321.829c0-13.824-11.207-25.031-25.031-25.031H75.093
		c-13.824,0-25.031,11.207-25.031,25.031v12.516c0,13.812,11.207,25.031,25.031,25.031h212.765
		c13.824,0,25.031-11.219,25.031-25.031V-321.829L312.889-321.829z"/>
	<path style="fill:#5D9040;" d="M329.955-183.307c0-38.491-63.59-69.689-142.04-69.689S45.863-221.797,45.863-183.307
		c0,38.48,63.602,69.689,142.052,69.689S329.955-144.827,329.955-183.307"/>
	<g>
		<path style="fill:#78B159;" d="M75.093-234.229c0-20.73-16.817-37.547-37.547-37.547C16.805-271.776,0-254.959,0-234.229
			c0,20.742,16.805,37.558,37.547,37.558C58.277-196.671,75.093-213.487,75.093-234.229"/>
		<path style="fill:#78B159;" d="M75.093-346.862c0-13.824-11.207-25.031-25.031-25.031s-25.031,11.207-25.031,25.031v112.628
			c0,13.824,11.207,25.043,25.031,25.043s25.031-11.219,25.031-25.043V-346.862z"/>
		<path style="fill:#78B159;" d="M300.377-234.229c0-20.73,16.805-37.547,37.547-37.547c20.719,0,37.547,16.817,37.547,37.547
			c0,20.742-16.827,37.558-37.547,37.558C317.182-196.671,300.377-213.487,300.377-234.229"/>
		<path style="fill:#78B159;" d="M300.377-346.862c0-13.824,11.195-25.031,25.019-25.031c13.824,0,25.031,11.207,25.031,25.031
			v112.628c0,13.824-11.207,25.043-25.031,25.043c-13.824,0-25.019-11.219-25.019-25.043V-346.862z"/>
		<path style="fill:#78B159;" d="M187.733-284.285c0-13.824-11.207-25.031-25.031-25.031h-62.578
			c-13.824,0-25.031,11.207-25.031,25.031c0,13.824,11.207,25.031,25.031,25.031h62.578
			C176.526-259.253,187.733-270.461,187.733-284.285"/>
		<path style="fill:#78B159;" d="M300.377-284.285c0-13.824-11.207-25.031-25.031-25.031h-62.578
			c-13.836,0-25.031,11.207-25.031,25.031c0,13.824,11.195,25.031,25.031,25.031h62.578
			C289.17-259.253,300.377-270.461,300.377-284.285"/>
		<path style="fill:#78B159;" d="M307.2-318.418H68.266v34.133H307.2V-318.418z"/>
	</g>
</g>
<g>
</g>
<g>
</g>
<g>
</g>
<g>
</g>
<g>
</g>
<g>
</g>
<g>
</g>
<g>
</g>
<g>
</g>
<g>
</g>
<g>
</g>
<g>
</g>
<g>
</g>
<g>
</g>
<g>
</g>
</svg>
